<?xml version="1.0" encoding="UTF-8"?>
<svg xmlns="http://www.w3.org/2000/svg" xmlns:xlink="http://www.w3.org/1999/xlink" width="132px" height="38px" viewBox="0 0 130 38" version="1.1">
<defs>
<linearGradient id="linear0" gradientUnits="userSpaceOnUse" x1="-2031.312" y1="275.868" x2="-1922.296" y2="182.075" gradientTransform="matrix(0.154012,0,0,-0.156539,312.122279,44.938828)">
<stop offset="0" style="stop-color:rgb(35.294118%,62.352941%,83.137255%);stop-opacity:1;"/>
<stop offset="1" style="stop-color:rgb(18.823529%,41.176471%,59.607843%);stop-opacity:1;"/>
</linearGradient>
<linearGradient id="linear1" gradientUnits="userSpaceOnUse" x1="-1880.151" y1="125.305" x2="-1919.08" y2="180.384" gradientTransform="matrix(0.154012,0,0,-0.156539,312.122279,44.938828)">
<stop offset="0" style="stop-color:rgb(100%,83.137255%,23.137255%);stop-opacity:1;"/>
<stop offset="1" style="stop-color:rgb(100%,90.980392%,45.098039%);stop-opacity:1;"/>
</linearGradient>
<filter id="alpha" filterUnits="objectBoundingBox" x="0%" y="0%" width="100%" height="100%">
  <feColorMatrix type="matrix" in="SourceGraphic" values="0 0 0 0 1 0 0 0 0 1 0 0 0 0 1 0 0 0 1 0"/>
</filter>
<mask id="mask0">
  <g filter="url(#alpha)">
<rect x="0" y="0" width="130" height="38" style="fill:rgb(0%,0%,0%);fill-opacity:0.443137;stroke:none;"/>
  </g>
</mask>
<radialGradient id="radial0" gradientUnits="userSpaceOnUse" cx="-3393.238" cy="376.791" fx="-3393.238" fy="376.791" r="29.037" gradientTransform="matrix(0,-0.0661159,-0.288776,0,124.087312,-188.321981)">
<stop offset="0" style="stop-color:rgb(72.156863%,72.156863%,72.156863%);stop-opacity:0.498039;"/>
<stop offset="1" style="stop-color:rgb(49.803922%,49.803922%,49.803922%);stop-opacity:0;"/>
</radialGradient>
<clipPath id="clip1">
  <rect x="0" y="0" width="130" height="38"/>
</clipPath>
<g id="surface5" clip-path="url(#clip1)">
<path style=" stroke:none;fill-rule:nonzero;fill:url(#radial0);" d="M 25.121094 36.070312 C 25.121094 37.128906 20.714844 37.988281 15.28125 37.988281 C 9.847656 37.988281 5.445312 37.128906 5.445312 36.070312 C 5.445312 35.007812 9.847656 34.148438 15.28125 34.148438 C 20.714844 34.148438 25.121094 35.007812 25.121094 36.070312 Z M 25.121094 36.070312 "/>
</g>
</defs>
<g id="surface1">
<path style=" stroke:none;fill-rule:nonzero;fill:rgb(39.215686%,39.215686%,39.215686%);fill-opacity:1;" d="M 49.015625 16.179688 C 49.015625 12.167969 47.878906 10.105469 45.605469 9.992188 C 44.699219 9.949219 43.816406 10.09375 42.957031 10.429688 C 42.273438 10.679688 41.8125 10.921875 41.566406 11.167969 L 41.566406 20.75 C 43.023438 21.667969 44.3125 22.09375 45.441406 22.027344 C 47.824219 21.867188 49.015625 19.921875 49.015625 16.179688 Z M 51.820312 16.347656 C 51.820312 18.382812 51.347656 20.078125 50.390625 21.421875 C 49.324219 22.945312 47.851562 23.730469 45.964844 23.773438 C 44.539062 23.820312 43.074219 23.371094 41.566406 22.429688 L 41.566406 31.136719 L 39.128906 30.261719 L 39.128906 10.9375 C 39.527344 10.441406 40.042969 10.015625 40.667969 9.65625 C 42.121094 8.804688 43.882812 8.367188 45.960938 8.347656 L 45.996094 8.382812 C 47.894531 8.355469 49.355469 9.140625 50.382812 10.730469 C 51.339844 12.191406 51.820312 14.058594 51.820312 16.347656 Z M 66.730469 22.058594 C 66.730469 24.792969 66.457031 26.6875 65.914062 27.742188 C 65.363281 28.792969 64.324219 29.636719 62.785156 30.261719 C 61.539062 30.753906 60.191406 31.023438 58.746094 31.070312 L 58.34375 29.523438 C 59.8125 29.320312 60.847656 29.121094 61.449219 28.917969 C 62.632812 28.515625 63.441406 27.898438 63.890625 27.070312 C 64.246094 26.394531 64.421875 25.109375 64.421875 23.203125 L 64.421875 22.566406 C 62.753906 23.328125 61.007812 23.707031 59.179688 23.707031 C 57.976562 23.707031 56.917969 23.328125 56.003906 22.566406 C 54.980469 21.734375 54.46875 20.683594 54.46875 19.40625 L 54.46875 9.1875 L 56.90625 8.347656 L 56.90625 18.632812 C 56.90625 19.730469 57.261719 20.578125 57.964844 21.171875 C 58.667969 21.765625 59.582031 22.050781 60.699219 22.027344 C 61.816406 22.003906 63.015625 21.566406 64.289062 20.714844 L 64.289062 8.714844 L 66.726562 8.714844 L 66.726562 22.058594 Z M 76.25 23.640625 C 75.984375 23.660156 75.714844 23.671875 75.445312 23.675781 C 74.066406 23.675781 72.992188 23.34375 72.222656 22.679688 C 71.457031 22.015625 71.074219 21.101562 71.074219 19.933594 L 71.074219 10.261719 L 69.402344 10.261719 L 69.402344 8.71875 L 71.074219 8.71875 L 71.074219 4.613281 L 73.511719 3.742188 L 73.511719 8.71875 L 76.25 8.71875 L 76.25 10.261719 L 73.511719 10.261719 L 73.511719 19.863281 C 73.511719 20.785156 73.753906 21.4375 74.246094 21.820312 C 74.667969 22.136719 75.335938 22.316406 76.25 22.359375 Z M 91.019531 23.4375 L 88.582031 23.4375 L 88.582031 13.960938 C 88.582031 12.996094 88.355469 12.167969 87.910156 11.472656 C 87.394531 10.6875 86.679688 10.296875 85.761719 10.296875 C 84.644531 10.296875 83.246094 10.890625 81.566406 12.078125 L 81.566406 23.4375 L 79.128906 23.4375 L 79.128906 0.785156 L 81.566406 0.0117188 L 81.566406 10.328125 C 83.125 9.1875 84.828125 8.613281 86.675781 8.613281 C 87.96875 8.613281 89.015625 9.050781 89.816406 9.925781 C 90.621094 10.796875 91.019531 11.886719 91.019531 13.1875 Z M 103.984375 15.792969 C 103.984375 14.25 103.695312 12.976562 103.113281 11.96875 C 102.425781 10.742188 101.355469 10.09375 99.910156 10.027344 C 97.234375 10.183594 95.898438 12.113281 95.898438 15.808594 C 95.898438 17.503906 96.179688 18.917969 96.738281 20.054688 C 97.453125 21.503906 98.527344 22.21875 99.957031 22.195312 C 102.640625 22.171875 103.984375 20.039062 103.984375 15.792969 Z M 106.65625 15.808594 C 106.65625 18.003906 106.097656 19.832031 104.984375 21.289062 C 103.757812 22.921875 102.066406 23.742188 99.910156 23.742188 C 97.769531 23.742188 96.101562 22.921875 94.898438 21.289062 C 93.804688 19.832031 93.261719 18.003906 93.261719 15.808594 C 93.261719 13.746094 93.851562 12.011719 95.03125 10.597656 C 96.277344 9.097656 97.914062 8.347656 99.941406 8.347656 C 101.964844 8.347656 103.617188 9.097656 104.886719 10.597656 C 106.066406 12.011719 106.65625 13.746094 106.65625 15.808594 Z M 120.640625 23.4375 L 118.199219 23.4375 L 118.199219 13.421875 C 118.199219 12.324219 117.871094 11.46875 117.214844 10.851562 C 116.558594 10.234375 115.683594 9.9375 114.59375 9.960938 C 113.433594 9.980469 112.332031 10.363281 111.285156 11.101562 L 111.285156 23.4375 L 108.847656 23.4375 L 108.847656 10.800781 C 110.25 9.769531 111.542969 9.097656 112.722656 8.785156 C 113.835938 8.492188 114.816406 8.347656 115.664062 8.347656 C 116.242188 8.347656 116.785156 8.402344 117.296875 8.515625 C 118.257812 8.738281 119.035156 9.152344 119.636719 9.757812 C 120.304688 10.429688 120.640625 11.238281 120.640625 12.179688 Z M 120.640625 23.4375 "/>
<path style=" stroke:none;fill-rule:nonzero;fill:url(#linear0);" d="M 15.035156 0.875 C 13.78125 0.882812 12.582031 0.988281 11.527344 1.175781 C 8.421875 1.730469 7.859375 2.886719 7.859375 5.019531 L 7.859375 7.835938 L 15.199219 7.835938 L 15.199219 8.773438 L 5.101562 8.773438 C 2.96875 8.773438 1.101562 10.0625 0.515625 12.519531 C -0.15625 15.335938 -0.1875 17.089844 0.515625 20.03125 C 1.039062 22.21875 2.285156 23.777344 4.417969 23.777344 L 6.941406 23.777344 L 6.941406 20.398438 C 6.941406 17.960938 9.039062 15.808594 11.527344 15.808594 L 18.863281 15.808594 C 20.902344 15.808594 22.53125 14.117188 22.53125 12.054688 L 22.53125 5.019531 C 22.53125 3.015625 20.855469 1.511719 18.863281 1.175781 C 17.601562 0.964844 16.292969 0.867188 15.035156 0.875 Z M 11.066406 3.140625 C 11.824219 3.140625 12.445312 3.773438 12.445312 4.550781 C 12.445312 5.328125 11.824219 5.957031 11.066406 5.957031 C 10.304688 5.957031 9.6875 5.328125 9.6875 4.550781 C 9.6875 3.773438 10.304688 3.140625 11.066406 3.140625 Z M 11.066406 3.140625 "/>
<path style=" stroke:none;fill-rule:nonzero;fill:url(#linear1);" d="M 23.449219 8.773438 L 23.449219 12.054688 C 23.449219 14.597656 21.304688 16.738281 18.863281 16.738281 L 11.527344 16.738281 C 9.519531 16.738281 7.859375 18.46875 7.859375 20.496094 L 7.859375 27.53125 C 7.859375 29.53125 9.589844 30.710938 11.527344 31.285156 C 13.851562 31.972656 16.082031 32.097656 18.863281 31.285156 C 20.710938 30.746094 22.53125 29.664062 22.53125 27.53125 L 22.53125 24.714844 L 15.199219 24.714844 L 15.199219 23.777344 L 26.203125 23.777344 C 28.335938 23.777344 29.132812 22.277344 29.875 20.027344 C 30.640625 17.714844 30.605469 15.488281 29.875 12.519531 C 29.347656 10.382812 28.339844 8.773438 26.203125 8.773438 Z M 19.324219 26.589844 C 20.085938 26.589844 20.699219 27.21875 20.699219 27.996094 C 20.699219 28.773438 20.085938 29.40625 19.324219 29.40625 C 18.566406 29.40625 17.945312 28.773438 17.945312 27.996094 C 17.945312 27.21875 18.566406 26.589844 19.324219 26.589844 Z M 19.324219 26.589844 "/>
<path style=" stroke:none;fill-rule:nonzero;fill:rgb(39.215686%,39.215686%,39.215686%);fill-opacity:1;" d="M 125.390625 6.527344 L 125.816406 6.527344 L 125.816406 3.828125 L 126.832031 3.828125 L 126.832031 3.507812 L 124.375 3.507812 L 124.375 3.828125 L 125.390625 3.828125 L 125.390625 6.527344 M 127.210938 6.527344 L 127.574219 6.527344 L 127.574219 4.0625 L 128.367188 6.527344 L 128.773438 6.527344 L 129.601562 4.070312 L 129.601562 6.527344 L 130 6.527344 L 130 3.507812 L 129.472656 3.507812 L 128.570312 6.09375 L 127.800781 3.507812 L 127.210938 3.507812 L 127.210938 6.527344 "/>
<use xlink:href="#surface5" mask="url(#mask0)"/>
</g>
</svg>
