<?xml version="1.0" encoding="UTF-8"?>
<svg xmlns="http://www.w3.org/2000/svg" xmlns:xlink="http://www.w3.org/1999/xlink" width="120px" height="40px" viewBox="0 0 120 40" version="1.1">
<g id="surface1">
<path style=" stroke:none;fill-rule:nonzero;fill:rgb(0%,38.039216%,54.117647%);fill-opacity:1;" d="M 0 36.335938 L 3.953125 36.335938 L 3.953125 26.324219 L 10.074219 35.054688 C 10.796875 36.105469 11.785156 36.484375 13.722656 36.484375 C 15.660156 36.484375 16.609375 36.109375 17.335938 35.054688 L 23.453125 26.324219 L 23.453125 36.339844 L 27.410156 36.339844 L 27.410156 26.339844 C 27.410156 25.363281 26.800781 24.890625 25.546875 24.648438 C 22.542969 24.046875 20.527344 24.566406 19.617188 25.867188 L 13.609375 34.484375 L 7.792969 25.863281 C 6.917969 24.5625 4.867188 24.042969 1.863281 24.644531 C 0.609375 24.886719 0 25.359375 0 26.335938 Z M 30.695312 28.183594 L 34.648438 28.183594 L 34.648438 33.703125 C 34.609375 34 34.796875 34.703125 36.960938 34.726562 C 38.066406 34.738281 45.492188 34.726562 45.558594 34.726562 L 45.558594 28.15625 L 49.519531 28.15625 C 49.539062 28.15625 49.515625 37.113281 49.515625 37.152344 C 49.539062 39.363281 45.242188 39.84375 43.265625 39.878906 L 30.78125 39.878906 L 30.78125 38.175781 L 43.285156 38.171875 C 45.832031 38 45.53125 37.191406 45.53125 36.917969 L 45.53125 36.25 L 37.128906 36.25 C 33.21875 36.226562 30.730469 35.132812 30.699219 33.875 C 30.695312 33.761719 30.78125 28.238281 30.695312 28.183594 Z M 30.695312 28.183594 "/>
<path style=" stroke:none;fill-rule:nonzero;fill:rgb(89.411765%,55.686275%,0%);fill-opacity:1;" d="M 52.566406 36.335938 L 63.933594 36.335938 C 65.265625 36.335938 66.558594 36.15625 67.585938 35.847656 C 69.296875 35.34375 70.132812 34.660156 70.132812 33.765625 L 70.132812 31.914062 C 70.132812 31.179688 69.179688 30.496094 67.320312 30.042969 C 66.332031 29.796875 65.113281 29.667969 63.9375 29.667969 L 59.144531 29.667969 C 57.550781 29.667969 56.789062 29.359375 56.597656 28.675781 C 56.5625 28.59375 56.5625 28.527344 56.5625 28.449219 L 56.5625 27.296875 C 56.5625 27.230469 56.5625 27.164062 56.597656 27.082031 C 56.789062 26.5625 57.207031 26.417969 58.613281 26.332031 C 58.726562 26.332031 58.878906 26.316406 58.996094 26.316406 L 70.285156 26.316406 L 70.285156 24.625 L 59.183594 24.625 C 57.585938 24.625 56.75 24.6875 55.992188 24.835938 C 53.632812 25.308594 52.605469 26.058594 52.605469 27.359375 L 52.605469 28.839844 C 52.605469 29.976562 54.621094 30.953125 58.003906 31.179688 C 58.382812 31.195312 58.765625 31.214844 59.144531 31.214844 L 63.25 31.214844 C 63.402344 31.214844 63.554688 31.214844 63.667969 31.230469 C 64.921875 31.296875 65.453125 31.441406 65.835938 31.734375 C 66.070312 31.882812 66.140625 32.027344 66.140625 32.183594 L 66.140625 33.664062 C 66.140625 33.84375 65.949219 34.070312 65.570312 34.265625 C 65.226562 34.460938 64.65625 34.589844 63.894531 34.625 C 63.742188 34.625 63.628906 34.640625 63.476562 34.640625 L 52.566406 34.640625 Z M 94.792969 33.390625 C 94.792969 35.132812 96.808594 36.109375 100.875 36.304688 C 101.253906 36.320312 101.632812 36.332031 102.015625 36.335938 L 112.316406 36.335938 L 112.316406 34.644531 L 101.9375 34.644531 C 99.621094 34.644531 98.746094 34.269531 98.746094 33.375 L 98.746094 24.628906 L 94.792969 24.628906 Z M 72.652344 33.480469 L 72.652344 27.453125 C 72.652344 25.921875 74.328125 24.992188 77.644531 24.699219 C 77.996094 24.664062 78.351562 24.648438 78.710938 24.648438 L 86.214844 24.648438 C 86.582031 24.648438 86.953125 24.664062 87.320312 24.699219 C 90.632812 24.992188 92.308594 25.921875 92.308594 27.453125 L 92.308594 33.480469 C 92.308594 34.722656 91.597656 35.386719 89.957031 35.820312 L 93.851562 38.078125 L 89.261719 38.078125 L 86.109375 36.253906 L 82.9375 36.382812 L 78.710938 36.382812 C 77.988281 36.382812 77.226562 36.316406 76.386719 36.167969 C 73.867188 35.730469 72.652344 34.882812 72.652344 33.480469 Z M 76.921875 33.328125 C 76.921875 33.410156 76.957031 33.492188 76.996094 33.589844 C 77.230469 34.292969 78.253906 34.683594 79.808594 34.683594 L 83.402344 34.683594 L 80.101562 32.773438 L 84.691406 32.773438 L 87.5625 34.4375 C 88.09375 34.257812 88.441406 33.980469 88.558594 33.625 C 88.597656 33.542969 88.597656 33.460938 88.597656 33.378906 L 88.597656 27.597656 C 88.597656 27.535156 88.597656 27.449219 88.558594 27.371094 C 88.324219 26.71875 87.300781 26.34375 85.777344 26.34375 L 79.816406 26.34375 C 78.058594 26.34375 76.921875 26.832031 76.921875 27.597656 L 76.921875 33.335938 Z M 76.921875 33.328125 "/>
<path style=" stroke:none;fill-rule:nonzero;fill:rgb(0%,38.039216%,54.117647%);fill-opacity:1;" d="M 115.796875 21.824219 C 113.367188 21.78125 111.507812 21.925781 109.921875 22.355469 C 109.46875 22.476562 108.75 22.480469 108.679688 22.84375 C 108.925781 23.007812 108.964844 23.257812 109.160156 23.460938 C 109.539062 23.855469 110.179688 24.382812 110.75 24.660156 C 111.375 24.960938 112.015625 25.285156 112.6875 25.546875 C 113.875 26.011719 115.203125 26.277344 116.347656 26.742188 C 117.023438 27.019531 117.695312 27.363281 118.351562 27.675781 C 118.675781 27.828125 118.898438 28.066406 119.320312 28.164062 L 119.320312 28.117188 C 119.097656 27.9375 119.039062 27.6875 118.835938 27.496094 L 117.9375 26.921875 C 117.058594 26.167969 115.945312 25.515625 114.757812 24.96875 C 113.8125 24.535156 111.699219 23.945312 111.304688 23.242188 L 111.234375 23.195312 C 111.90625 23.148438 112.6875 22.992188 113.308594 22.886719 C 114.347656 22.707031 115.277344 22.753906 116.351562 22.574219 L 117.800781 22.308594 L 117.800781 22.132812 C 117.257812 21.773438 116.871094 21.304688 116.28125 20.980469 C 114.734375 20.132812 113.042969 19.289062 111.304688 18.585938 C 110.339844 18.195312 109.148438 17.941406 108.128906 17.609375 C 107.78125 17.5 107.179688 17.441406 106.953125 17.253906 C 106.414062 16.816406 106.125 16.257812 105.707031 15.75 C 104.839844 14.679688 103.988281 13.507812 103.222656 12.382812 C 102.695312 11.613281 102.355469 10.855469 101.699219 10.164062 C 98.5625 6.855469 95.183594 4.855469 89.953125 2.894531 C 88.839844 2.476562 87.5 2.3125 86.085938 2.09375 L 83.804688 2.007812 C 83.339844 1.882812 82.855469 1.519531 82.421875 1.339844 C 80.6875 0.636719 76.242188 -0.890625 74.957031 1.117188 C 74.148438 2.382812 76.167969 3.621094 76.894531 4.265625 C 77.402344 4.714844 78.050781 5.21875 78.414062 5.726562 C 78.652344 6.058594 78.691406 6.394531 78.898438 6.746094 C 79.398438 7.613281 79.835938 8.558594 80.484375 9.363281 C 80.8125 9.769531 81.175781 10.195312 81.589844 10.558594 C 81.847656 10.78125 82.28125 10.882812 82.351562 11.226562 C 81.925781 11.609375 81.902344 12.203125 81.660156 12.6875 C 80.582031 14.875 80.988281 17.589844 82.558594 19.207031 C 83.039062 19.703125 84.175781 20.765625 85.738281 20.359375 C 87.101562 20 86.792969 18.894531 87.1875 17.921875 C 87.277344 17.699219 87.222656 17.535156 87.394531 17.386719 L 87.394531 17.433594 L 88.640625 19.027344 C 89.558594 19.980469 91.195312 20.972656 92.578125 21.644531 C 93.296875 21.992188 93.867188 22.59375 94.789062 22.796875 L 94.789062 22.753906 L 94.722656 22.753906 C 94.539062 22.574219 94.257812 22.5 94.03125 22.355469 C 93.488281 22.015625 92.886719 21.59375 92.441406 21.203125 C 91.179688 20.105469 90.066406 18.90625 89.054688 17.65625 C 88.570312 17.058594 88.148438 16.402344 87.742188 15.792969 C 87.585938 15.558594 87.585938 15.207031 87.257812 15.085938 C 86.8125 15.527344 86.152344 15.886719 85.808594 16.414062 C 85.253906 17.253906 85.183594 18.277344 84.976562 19.339844 C 84.855469 19.367188 84.910156 19.347656 84.839844 19.386719 C 83.878906 19.234375 83.539062 18.601562 83.179688 18.054688 C 82.277344 16.675781 82.109375 14.453125 82.90625 12.867188 C 83.109375 12.457031 84.042969 11.164062 83.664062 10.785156 C 83.484375 10.40625 82.890625 10.183594 82.558594 9.894531 C 82.148438 9.539062 81.738281 9.066406 81.453125 8.65625 C 80.710938 7.578125 80.367188 6.375 79.585938 5.285156 C 79.214844 4.765625 78.585938 4.242188 78.066406 3.78125 C 77.496094 3.269531 76.851562 2.894531 76.410156 2.277344 C 76.25 2.058594 76.035156 1.707031 76.269531 1.480469 C 76.316406 1.347656 76.480469 1.242188 76.6875 1.214844 C 77.085938 1.015625 78.203125 1.28125 78.621094 1.390625 C 79.726562 1.6875 80.652344 1.96875 81.59375 2.367188 C 82.042969 2.554688 82.5 2.929688 83.042969 3.03125 L 83.664062 3.03125 C 84.636719 3.175781 85.726562 3.078125 86.636719 3.253906 C 88.242188 3.566406 89.679688 4.054688 90.988281 4.585938 C 94.972656 6.199219 98.226562 8.496094 100.457031 11.238281 C 100.816406 11.679688 100.96875 12.101562 101.285156 12.566406 C 101.921875 13.507812 102.722656 14.484375 103.359375 15.40625 C 103.992188 16.328125 104.605469 17.253906 105.5 18.019531 C 105.96875 18.421875 107.785156 18.640625 108.609375 18.863281 C 109.1875 19.019531 110.136719 19.183594 110.683594 19.394531 C 111.730469 19.800781 112.742188 20.28125 113.722656 20.726562 C 114.214844 20.949219 115.722656 21.433594 115.796875 21.835938 Z M 115.796875 21.824219 "/>
<path style=" stroke:none;fill-rule:evenodd;fill:rgb(0%,38.039216%,54.117647%);fill-opacity:1;" d="M 84.90625 4.929688 C 84.402344 4.925781 84.042969 4.964844 83.664062 5.019531 L 83.664062 5.0625 L 83.734375 5.0625 C 83.976562 5.382812 84.402344 5.585938 84.699219 5.863281 L 85.390625 6.792969 L 85.460938 6.75 C 85.886719 6.554688 86.085938 6.246094 86.082031 5.773438 C 85.910156 5.65625 85.886719 5.511719 85.734375 5.375 C 85.539062 5.1875 85.148438 5.085938 84.90625 4.929688 Z M 84.90625 4.929688 "/>
<path style=" stroke:none;fill-rule:evenodd;fill:rgb(89.411765%,55.686275%,0%);fill-opacity:1;" d="M 114.171875 34.597656 C 114.171875 35.710938 115.546875 36.464844 117.085938 36.464844 C 118.625 36.464844 120 35.710938 120 34.597656 C 120 33.480469 118.625 32.726562 117.085938 32.726562 C 115.546875 32.726562 114.171875 33.480469 114.171875 34.597656 Z M 119.347656 34.597656 C 119.347656 35.445312 118.335938 36.078125 117.085938 36.078125 C 115.820312 36.078125 114.824219 35.445312 114.824219 34.597656 C 114.824219 33.75 115.816406 33.117188 117.085938 33.117188 C 118.335938 33.117188 119.347656 33.75 119.347656 34.597656 Z M 117.871094 35.664062 L 118.523438 35.664062 L 117.566406 34.726562 C 118.078125 34.691406 118.46875 34.53125 118.46875 34.144531 C 118.46875 33.707031 118.039062 33.53125 117.21875 33.53125 L 115.917969 33.53125 L 115.917969 35.664062 L 116.480469 35.664062 L 116.480469 34.742188 L 117 34.742188 Z M 116.480469 34.441406 L 116.480469 33.828125 L 117.125 33.828125 C 117.457031 33.828125 117.863281 33.867188 117.863281 34.117188 C 117.863281 34.417969 117.496094 34.441406 117.078125 34.441406 Z M 116.480469 34.441406 "/>
</g>
</svg>
